<svg t="1571054599206" class="icon" viewBox="0 0 1024 1024" version="1.1" xmlns="http://www.w3.org/2000/svg" p-id="2100" width="32" height="32"><path d="M571.52 909.44H280.96c-61.44 0-111.36-49.92-111.36-111.36V387.2c0-61.44 49.92-111.36 111.36-111.36h290.56c61.44 0 111.36 49.92 111.36 111.36v410.88c0 61.44-49.92 111.36-111.36 111.36z m-290.56-569.6c-26.24 0-47.36 21.12-47.36 47.36v410.88c0 26.24 21.12 47.36 47.36 47.36h290.56c26.24 0 47.36-21.12 47.36-47.36V387.2c0-26.24-21.12-47.36-47.36-47.36H280.96z" fill="#ffffff" p-id="2101"></path><path d="M775.68 742.4c-17.92 0-32-14.08-32-32V333.44c0-66.56-53.76-120.32-120.32-120.32h-256c-17.92 0-32-14.08-32-32s14.08-32 32-32h256c101.76 0 184.32 82.56 184.32 184.32V710.4c0 17.28-14.08 32-32 32z" fill="#ffffff" p-id="2102"></path></svg>