<svg t="1571054751567" class="icon" viewBox="0 0 1024 1024" version="1.1" xmlns="http://www.w3.org/2000/svg" p-id="2534" width="32" height="32"><path d="M733.44 895.36H281.6c-49.28 0-88.96-39.68-88.96-88.96V569.6c0-17.92 14.08-32 32-32h618.88V432c0-11.52-8.96-20.48-20.48-20.48H191.36c-11.52 0-20.48 8.96-20.48 20.48v83.84c0 17.92-14.08 32-32 32s-32-14.08-32-32V432c0-46.72 37.76-84.48 84.48-84.48h632.32c46.72 0 84.48 37.76 84.48 84.48V569.6c0 17.92-14.08 32-32 32H256.64v204.8c0 13.44 10.88 24.96 24.96 24.96h451.84c13.44 0 24.96-10.88 24.96-24.96v-137.6c0-17.92 14.08-32 32-32s32 14.08 32 32V806.4c0 49.28-39.68 88.96-88.96 88.96z" fill="#ffffff" p-id="2535"></path><path d="M485.12 411.52c-0.64 0-0.64 0 0 0H383.36c-72.96-0.64-131.84-60.16-131.84-132.48 0-72.96 59.52-132.48 132.48-132.48 72.32 0 131.84 58.88 132.48 131.2v101.76c0 8.32-3.2 16.64-9.6 22.4-5.76 5.76-13.44 9.6-21.76 9.6zM384 209.92c-37.76 0-68.48 30.72-68.48 68.48 0 37.12 30.72 67.84 67.84 68.48h69.12V277.76c0-37.12-30.72-67.84-68.48-67.84zM551.68 412.8c-17.92 0-32-14.08-32-32s14.08-32 32-32h101.76c37.12-0.64 67.84-31.36 67.84-68.48 0-37.76-30.72-68.48-68.48-68.48-19.84 0-38.4 8.32-51.84 23.68-11.52 13.44-32 14.72-45.44 3.2-13.44-11.52-14.72-32-3.2-45.44 24.96-28.8 61.44-45.44 99.84-45.44 72.96 0 132.48 59.52 132.48 132.48 0 72.32-58.88 131.84-131.2 132.48H551.68z" fill="#ffffff" p-id="2536"></path></svg>